<svg xmlns="http://www.w3.org/2000/svg" viewBox="0 0 128 128" fill="none">
  <!-- Image frame -->
  <rect x="12" y="20" width="80" height="68" rx="12" fill="#24292f" stroke="#f0f6fc" stroke-width="4"/>
  <!-- Sun -->
  <circle cx="36" cy="44" r="9" fill="#f7c948"/>
  <!-- Mountains -->
  <path d="M12 76 L40 50 L60 70 L72 58 L92 76 Z" fill="#57ab5a"/>
  <path d="M12 76 L40 50 L60 70 L72 58 L92 76 L92 80 A12 12 0 0 1 80 88 L24 88 A12 12 0 0 1 12 76Z" fill="#57ab5a" opacity="0.9"/>
  <!-- Magnifying glass -->
  <circle cx="90" cy="82" r="22" fill="#24292f" stroke="#f0f6fc" stroke-width="5"/>
  <circle cx="90" cy="82" r="14" stroke="#8b949e" stroke-width="3" fill="none"/>
  <line x1="107" y1="99" x2="120" y2="116" stroke="#f0f6fc" stroke-width="6" stroke-linecap="round"/>
  <!-- Glass shine -->
  <path d="M82 74 A10 10 0 0 1 90 70" stroke="#f0f6fc" stroke-width="2" stroke-linecap="round" opacity="0.5"/>
</svg>
